{
	"asset":{
		"version":"2.0",
		"generator":"Created using the official Cinema 4D glTF Exporter 1.000x284978"
	},
	"scenes":[{
		"nodes":[0]
	}],
	"nodes":[{
		"rotation":[0.0,
		0.0,
		0.0,
		-1.0],
		"name":"BLUE_SCENE",
		"translation":[-405.3875732421875,
		-485.9928894042969,
		-346.2353515625],
		"scale":[1.0,
		1.0,
		1.0],
		"children":[1,
		2,
		3,
		4,
		5,
		7]
	},
	{
		"rotation":[0.0,
		0.0,
		0.0,
		-1.0],
		"name":"Floor_cieling_Cloner_1",
		"translation":[-1182.0404052734376,
		279.2892150878906,
		-1319.407958984375],
		"scale":[1.0,
		1.0,
		1.0],
		"mesh":0
	},
	{
		"rotation":[0.0,
		-0.3826834261417389,
		0.0,
		0.9238795042037964],
		"name":"Cube",
		"translation":[-1406.5543212890626,
		-863.0604858398438,
		56.476375579833987],
		"scale":[1.0,
		1.0,
		1.0],
		"mesh":1
	},
	{
		"rotation":[0.0,
		-0.3826834261417389,
		0.0,
		-0.9238795042037964],
		"name":"Cube_2",
		"translation":[-607.0630493164063,
		-972.125244140625,
		-1675.2158203125],
		"scale":[1.0,
		1.0,
		1.0],
		"mesh":2
	},
	{
		"rotation":[0.0,
		0.0,
		0.0,
		-1.0],
		"name":"Modern_room_FINAL",
		"translation":[-1861.4881591796876,
		-314.1061096191406,
		-2150.6689453125],
		"scale":[1.0,
		1.0,
		1.0],
		"mesh":3
	},
	{
		"rotation":[-4.0001954805974439e-17,
		-0.9238795042037964,
		9.657325710622718e-17,
		-0.3826834261417389],
		"name":"Pljosnati_stubovi",
		"translation":[-1632.4661865234376,
		-299.2725830078125,
		15.522354125976563],
		"scale":[1.0,
		1.0,
		1.0],
		"children":[6]
	},
	{
		"rotation":[6.863250304840785e-18,
		-0.9238795042037964,
		1.656935245736198e-17,
		0.3826834261417389],
		"name":"pljos_stub_red_0",
		"translation":[1281.0,
		2.2737367544323208e-13,
		-3.183231456205249e-12],
		"scale":[1.0,
		1.0,
		1.0],
		"mesh":4
	},
	{
		"rotation":[0.0,
		0.0,
		0.0,
		-1.0],
		"name":"ledder",
		"translation":[-521.3984985351563,
		-842.3056030273438,
		-1700.495849609375],
		"scale":[1.0,
		1.0,
		1.0],
		"mesh":5
	}],
	"meshes":[{
		"name":"Floor_cieling_Cloner_1",
		"primitives":[{
			"attributes":{
				"POSITION":1,
				"NORMAL":2,
				"TEXCOORD_0":3
			},
			"indices":0
		}]
	},
	{
		"name":"Cube",
		"primitives":[{
			"attributes":{
				"POSITION":5,
				"NORMAL":6,
				"TEXCOORD_0":7
			},
			"indices":4
		}]
	},
	{
		"name":"Cube_2",
		"primitives":[{
			"attributes":{
				"POSITION":9,
				"NORMAL":10,
				"TEXCOORD_0":11
			},
			"indices":8
		}]
	},
	{
		"name":"Modern_room_FINAL",
		"primitives":[{
			"attributes":{
				"POSITION":13,
				"NORMAL":14,
				"TEXCOORD_0":15
			},
			"indices":12
		}]
	},
	{
		"name":"pljos_stub_red_0",
		"primitives":[{
			"attributes":{
				"POSITION":17,
				"NORMAL":18,
				"TEXCOORD_0":19
			},
			"indices":16
		}]
	},
	{
		"name":"ledder",
		"primitives":[{
			"attributes":{
				"POSITION":21,
				"NORMAL":22,
				"TEXCOORD_0":23
			},
			"indices":20
		}]
	}],
	"accessors":[{
		"bufferView":0,
		"type":"SCALAR",
		"componentType":5123,
		"count":33,
		"byteOffset":0,
		"min":[0],
		"max":[14]
	},
	{
		"bufferView":1,
		"type":"VEC3",
		"componentType":5126,
		"count":15,
		"byteOffset":0,
		"min":[809.8812255859375,
		-1291.373046875,
		-1139.2950439453126],
		"max":[1164.2764892578126,
		-622.7197875976563,
		-784.9051513671875]
	},
	{
		"bufferView":1,
		"type":"VEC3",
		"componentType":5126,
		"count":15,
		"byteOffset":12,
		"min":[0.7071067690849304,
		-2.727596495333273e-7,
		0.7031006217002869],
		"max":[0.7110903263092041,
		2.467325259658537e-7,
		0.7071068286895752]
	},
	{
		"bufferView":1,
		"type":"VEC2",
		"componentType":5126,
		"count":15,
		"byteOffset":24,
		"min":[0.26357537508010867,
		0.0],
		"max":[0.7861999273300171,
		0.9038000106811523]
	},
	{
		"bufferView":2,
		"type":"SCALAR",
		"componentType":5123,
		"count":276,
		"byteOffset":0,
		"min":[0],
		"max":[143]
	},
	{
		"bufferView":3,
		"type":"VEC3",
		"componentType":5126,
		"count":144,
		"byteOffset":0,
		"min":[-416.8131103515625,
		-167.60415649414063,
		-58.71645736694336],
		"max":[416.8131103515625,
		167.60415649414063,
		58.71645736694336]
	},
	{
		"bufferView":3,
		"type":"VEC3",
		"componentType":5126,
		"count":144,
		"byteOffset":12,
		"min":[-1.0,
		-1.0,
		-1.0],
		"max":[1.0,
		1.0,
		1.0]
	},
	{
		"bufferView":3,
		"type":"VEC2",
		"componentType":5126,
		"count":144,
		"byteOffset":24,
		"min":[0.0,
		0.0],
		"max":[1.0,
		1.0]
	},
	{
		"bufferView":4,
		"type":"SCALAR",
		"componentType":5123,
		"count":654,
		"byteOffset":0,
		"min":[0],
		"max":[217]
	},
	{
		"bufferView":5,
		"type":"VEC3",
		"componentType":5126,
		"count":218,
		"byteOffset":0,
		"min":[-300.0,
		-120.75479125976563,
		-300.0],
		"max":[300.0,
		50.0,
		300.0]
	},
	{
		"bufferView":5,
		"type":"VEC3",
		"componentType":5126,
		"count":218,
		"byteOffset":12,
		"min":[-1.0,
		-1.0,
		-1.0],
		"max":[1.0,
		1.0,
		1.0]
	},
	{
		"bufferView":5,
		"type":"VEC2",
		"componentType":5126,
		"count":218,
		"byteOffset":24,
		"min":[0.0,
		0.0],
		"max":[1.0,
		1.0]
	},
	{
		"bufferView":6,
		"type":"SCALAR",
		"componentType":5123,
		"count":11688,
		"byteOffset":0,
		"min":[0],
		"max":[3759]
	},
	{
		"bufferView":7,
		"type":"VEC3",
		"componentType":5126,
		"count":3760,
		"byteOffset":0,
		"min":[-2383.509033203125,
		-750.8346557617188,
		-2317.2255859375],
		"max":[3218.435302734375,
		619.94384765625,
		3214.00830078125]
	},
	{
		"bufferView":7,
		"type":"VEC3",
		"componentType":5126,
		"count":3760,
		"byteOffset":12,
		"min":[-0.9682610034942627,
		-1.0,
		-0.9912868738174439],
		"max":[0.9673001170158386,
		1.0,
		0.9950090050697327]
	},
	{
		"bufferView":7,
		"type":"VEC2",
		"componentType":5126,
		"count":3760,
		"byteOffset":24,
		"min":[-2.9976021664879228e-15,
		0.0],
		"max":[1.0,
		1.0]
	},
	{
		"bufferView":8,
		"type":"SCALAR",
		"componentType":5123,
		"count":2820,
		"byteOffset":0,
		"min":[0],
		"max":[1367]
	},
	{
		"bufferView":9,
		"type":"VEC3",
		"componentType":5126,
		"count":1368,
		"byteOffset":0,
		"min":[-933.7683715820313,
		-222.5,
		-955.6329956054688],
		"max":[933.7683715820313,
		222.5,
		955.6329956054688]
	},
	{
		"bufferView":9,
		"type":"VEC3",
		"componentType":5126,
		"count":1368,
		"byteOffset":12,
		"min":[-0.9993218779563904,
		-1.0,
		-0.9998282790184021],
		"max":[0.9993218779563904,
		1.0,
		0.9998282790184021]
	},
	{
		"bufferView":9,
		"type":"VEC2",
		"componentType":5126,
		"count":1368,
		"byteOffset":24,
		"min":[0.0,
		0.0],
		"max":[1.0,
		1.0]
	},
	{
		"bufferView":10,
		"type":"SCALAR",
		"componentType":5123,
		"count":8538,
		"byteOffset":0,
		"min":[0],
		"max":[1850]
	},
	{
		"bufferView":11,
		"type":"VEC3",
		"componentType":5126,
		"count":1851,
		"byteOffset":0,
		"min":[-90.26343536376953,
		-238.17774963378907,
		-227.5146026611328],
		"max":[173.6840057373047,
		154.91810607910157,
		36.432838439941409]
	},
	{
		"bufferView":11,
		"type":"VEC3",
		"componentType":5126,
		"count":1851,
		"byteOffset":12,
		"min":[-0.999992311000824,
		-0.9996881484985352,
		-0.9993006587028503],
		"max":[0.9993007183074951,
		0.9996881484985352,
		0.9998071789741516]
	},
	{
		"bufferView":11,
		"type":"VEC2",
		"componentType":5126,
		"count":1851,
		"byteOffset":24,
		"min":[0.0,
		0.0],
		"max":[1.0,
		1.0]
	}],
	"bufferViews":[{
		"buffer":0,
		"byteOffset":0,
		"byteLength":66,
		"target":34963
	},
	{
		"buffer":0,
		"byteOffset":68,
		"byteLength":480,
		"target":34962,
		"byteStride":32
	},
	{
		"buffer":1,
		"byteOffset":0,
		"byteLength":552,
		"target":34963
	},
	{
		"buffer":1,
		"byteOffset":552,
		"byteLength":4608,
		"target":34962,
		"byteStride":32
	},
	{
		"buffer":2,
		"byteOffset":0,
		"byteLength":1308,
		"target":34963
	},
	{
		"buffer":2,
		"byteOffset":1308,
		"byteLength":6976,
		"target":34962,
		"byteStride":32
	},
	{
		"buffer":3,
		"byteOffset":0,
		"byteLength":23376,
		"target":34963
	},
	{
		"buffer":3,
		"byteOffset":23376,
		"byteLength":120320,
		"target":34962,
		"byteStride":32
	},
	{
		"buffer":4,
		"byteOffset":0,
		"byteLength":5640,
		"target":34963
	},
	{
		"buffer":4,
		"byteOffset":5640,
		"byteLength":43776,
		"target":34962,
		"byteStride":32
	},
	{
		"buffer":5,
		"byteOffset":0,
		"byteLength":17076,
		"target":34963
	},
	{
		"buffer":5,
		"byteOffset":17076,
		"byteLength":59232,
		"target":34962,
		"byteStride":32
	}],
	"buffers":[{
		"uri":"data:application/octet-stream;base64,",
		"byteLength":548
	},
	{
		"uri":"data:application/octet-stream;base64,",
		"byteLength":5160
	},
	{
		"uri":"data:application/octet-stream;base64,",
		"byteLength":8284
	},
	{
		"uri":"data:application/octet-stream;base64,",
		"byteLength":143696
	},
	{
		"uri":"data:application/octet-stream;base64,",
		"byteLength":49416
	},
	{
		"uri":"data:application/octet-stream;base64,",
		"byteLength":76308
	}]
}