{
	"nodes":[{
		"name":"BLUE_SCENE",
		"translation":[-405.3875732421875,
		-485.9928894042969,
		-346.2353515625],
		"rotation":[0.0,
		0.0,
		0.0,
		-1.0],
		"scale":[1.0,
		1.0,
		1.0],
		"children":[1,
		2,
		3,
		4,
		5,
		6,
		8,
		9]
	},
	{
		"name":"Modern_room_FINAL",
		"translation":[-1861.4881591796876,
		-314.1061096191406,
		-2150.6689453125],
		"rotation":[0.0,
		0.0,
		0.0,
		-1.0],
		"scale":[1.0,
		1.0,
		1.0],
		"mesh":0
	},
	{
		"name":"Cylinder",
		"translation":[581.5861206054688,
		-346.52752685546877,
		-1500.0892333984376],
		"rotation":[0.6532815098762512,
		-0.27059805393218996,
		0.27059805393218996,
		0.6532815098762512],
		"scale":[1.0,
		1.0,
		1.0],
		"mesh":1
	},
	{
		"name":"Floor_cieling_Cloner.1",
		"translation":[-1182.0404052734376,
		279.2892150878906,
		-1319.407958984375],
		"rotation":[0.0,
		0.0,
		0.0,
		-1.0],
		"scale":[1.0,
		1.0,
		1.0],
		"mesh":2
	},
	{
		"name":"Cube",
		"translation":[-1406.5543212890626,
		-863.0604858398438,
		56.476375579833987],
		"rotation":[0.0,
		-0.3826834261417389,
		0.0,
		0.9238795042037964],
		"scale":[1.0,
		1.0,
		1.0],
		"mesh":3
	},
	{
		"name":"Cube_2",
		"translation":[-607.0630493164063,
		-972.125244140625,
		-1675.2158203125],
		"rotation":[0.0,
		-0.3826834261417389,
		0.0,
		-0.9238795042037964],
		"scale":[1.0,
		1.0,
		1.0],
		"mesh":4
	},
	{
		"name":"Pljosnati_stubovi",
		"translation":[-1657.3548583984376,
		-299.2725830078125,
		-17.296894073486329],
		"rotation":[-4.0001954805974439e-17,
		-0.9238795042037964,
		9.657325710622718e-17,
		-0.3826834261417389],
		"scale":[1.0,
		1.0,
		1.0],
		"children":[7]
	},
	{
		"name":"pljos_stub_red_0",
		"translation":[1281.0,
		1.1368683772161604e-13,
		-2.2737367544323206e-12],
		"rotation":[6.863250304840785e-18,
		-0.9238795042037964,
		1.656935245736198e-17,
		0.3826834261417389],
		"scale":[1.0,
		1.0,
		1.0],
		"mesh":5
	},
	{
		"name":"ledder",
		"translation":[-521.3984985351563,
		-842.3056030273438,
		-1700.495849609375],
		"rotation":[0.0,
		0.0,
		0.0,
		-1.0],
		"scale":[1.0,
		1.0,
		1.0],
		"mesh":6
	},
	{
		"name":"Cylinder.1",
		"translation":[298.3442077636719,
		-346.52752685546877,
		-1783.3311767578126],
		"rotation":[0.6532815098762512,
		-0.27059805393218996,
		0.27059805393218996,
		0.6532815098762512],
		"scale":[1.0,
		1.0,
		1.0],
		"mesh":7
	}],
	"asset":{
		"version":"2.0",
		"generator":"Created using the official Cinema 4D glTF Exporter 1.000x284978"
	},
	"scenes":[{
		"nodes":[0]
	}],
	"meshes":[{
		"name":"Modern_room_FINAL",
		"primitives":[{
			"attributes":{
				"POSITION":1,
				"NORMAL":2,
				"TEXCOORD_0":3
			},
			"indices":0,
			"material":0
		}]
	},
	{
		"name":"Cylinder",
		"primitives":[{
			"attributes":{
				"POSITION":5,
				"NORMAL":6,
				"TEXCOORD_0":7
			},
			"indices":4,
			"material":0
		}]
	},
	{
		"name":"Floor_cieling_Cloner.1",
		"primitives":[{
			"attributes":{
				"POSITION":9,
				"NORMAL":10,
				"TEXCOORD_0":11
			},
			"indices":8,
			"material":0
		}]
	},
	{
		"name":"Cube",
		"primitives":[{
			"attributes":{
				"POSITION":13,
				"NORMAL":14,
				"TEXCOORD_0":15
			},
			"indices":12,
			"material":0
		}]
	},
	{
		"name":"Cube_2",
		"primitives":[{
			"attributes":{
				"POSITION":17,
				"NORMAL":18
			},
			"indices":16,
			"material":0
		}]
	},
	{
		"name":"pljos_stub_red_0",
		"primitives":[{
			"attributes":{
				"POSITION":20,
				"NORMAL":21,
				"TEXCOORD_0":22
			},
			"indices":19,
			"material":0
		}]
	},
	{
		"name":"ledder",
		"primitives":[{
			"attributes":{
				"POSITION":24,
				"NORMAL":25,
				"TEXCOORD_0":26
			},
			"indices":23,
			"material":0
		}]
	},
	{
		"name":"Cylinder.1",
		"primitives":[{
			"attributes":{
				"POSITION":28,
				"NORMAL":29,
				"TEXCOORD_0":30
			},
			"indices":27,
			"material":0
		}]
	}],
	"accessors":[{
		"bufferView":0,
		"componentType":5123,
		"type":"SCALAR",
		"byteOffset":0,
		"count":9672,
		"min":[0],
		"max":[3120]
	},
	{
		"bufferView":1,
		"componentType":5126,
		"type":"VEC3",
		"byteOffset":0,
		"count":3121,
		"min":[-2383.509033203125,
		-750.8346557617188,
		-2317.2255859375],
		"max":[3218.435302734375,
		619.94384765625,
		3214.00830078125]
	},
	{
		"bufferView":1,
		"componentType":5126,
		"type":"VEC3",
		"byteOffset":12,
		"count":3121,
		"min":[-0.9452961683273315,
		-1.0,
		-0.9912868738174439],
		"max":[0.9673001170158386,
		1.0,
		0.9950090050697327]
	},
	{
		"bufferView":1,
		"componentType":5126,
		"type":"VEC2",
		"byteOffset":24,
		"count":3121,
		"min":[-5.450185641746276e-15,
		0.0],
		"max":[1.8181817531585694,
		1.0]
	},
	{
		"bufferView":2,
		"componentType":5123,
		"type":"SCALAR",
		"byteOffset":0,
		"count":189,
		"min":[0],
		"max":[70]
	},
	{
		"bufferView":3,
		"componentType":5126,
		"type":"VEC3",
		"byteOffset":0,
		"count":71,
		"min":[-100.0,
		-47.4346923828125,
		1.0279902200750063e-13],
		"max":[100.0,
		47.4346923828125,
		99.45218658447266]
	},
	{
		"bufferView":3,
		"componentType":5126,
		"type":"VEC3",
		"byteOffset":12,
		"count":71,
		"min":[-0.9945219159126282,
		-1.0,
		-1.0],
		"max":[0.9945219159126282,
		1.0,
		0.9975719451904297]
	},
	{
		"bufferView":3,
		"componentType":5126,
		"type":"VEC2",
		"byteOffset":24,
		"count":71,
		"min":[0.0,
		0.0],
		"max":[1.8181817531585694,
		1.0]
	},
	{
		"bufferView":4,
		"componentType":5123,
		"type":"SCALAR",
		"byteOffset":0,
		"count":51,
		"min":[0],
		"max":[22]
	},
	{
		"bufferView":5,
		"componentType":5126,
		"type":"VEC3",
		"byteOffset":0,
		"count":23,
		"min":[806.7469482421875,
		-1295.6097412109376,
		-1141.98193359375],
		"max":[1729.8045654296876,
		-625.2589111328125,
		-217.15737915039063]
	},
	{
		"bufferView":5,
		"componentType":5126,
		"type":"VEC3",
		"byteOffset":12,
		"count":23,
		"min":[0.7071064710617065,
		-3.4849421126637028e-7,
		0.7031006217002869],
		"max":[0.7110903263092041,
		4.0919275079431829e-7,
		0.7071071267127991]
	},
	{
		"bufferView":5,
		"componentType":5126,
		"type":"VEC2",
		"byteOffset":24,
		"count":23,
		"min":[0.4792279303073883,
		0.0],
		"max":[1.4294543266296387,
		0.9038000106811523]
	},
	{
		"bufferView":6,
		"componentType":5123,
		"type":"SCALAR",
		"byteOffset":0,
		"count":276,
		"min":[0],
		"max":[143]
	},
	{
		"bufferView":7,
		"componentType":5126,
		"type":"VEC3",
		"byteOffset":0,
		"count":144,
		"min":[-416.8131103515625,
		-167.60415649414063,
		-58.71645736694336],
		"max":[416.8131103515625,
		167.60415649414063,
		58.71645736694336]
	},
	{
		"bufferView":7,
		"componentType":5126,
		"type":"VEC3",
		"byteOffset":12,
		"count":144,
		"min":[-1.0,
		-1.0,
		-1.0],
		"max":[1.0,
		1.0,
		1.0]
	},
	{
		"bufferView":7,
		"componentType":5126,
		"type":"VEC2",
		"byteOffset":24,
		"count":144,
		"min":[0.0,
		0.0],
		"max":[1.8181817531585694,
		1.0]
	},
	{
		"bufferView":8,
		"componentType":5123,
		"type":"SCALAR",
		"byteOffset":0,
		"count":654,
		"min":[0],
		"max":[217]
	},
	{
		"bufferView":9,
		"componentType":5126,
		"type":"VEC3",
		"byteOffset":0,
		"count":218,
		"min":[-300.0,
		-120.75479125976563,
		-300.0],
		"max":[300.0,
		50.0,
		300.0]
	},
	{
		"bufferView":9,
		"componentType":5126,
		"type":"VEC3",
		"byteOffset":12,
		"count":218,
		"min":[-1.0,
		-1.0,
		-1.0],
		"max":[1.0,
		1.0,
		1.0]
	},
	{
		"bufferView":10,
		"componentType":5123,
		"type":"SCALAR",
		"byteOffset":0,
		"count":2820,
		"min":[0],
		"max":[1367]
	},
	{
		"bufferView":11,
		"componentType":5126,
		"type":"VEC3",
		"byteOffset":0,
		"count":1368,
		"min":[-933.7683715820313,
		-222.5,
		-955.6329956054688],
		"max":[933.7683715820313,
		222.5,
		955.6329956054688]
	},
	{
		"bufferView":11,
		"componentType":5126,
		"type":"VEC3",
		"byteOffset":12,
		"count":1368,
		"min":[-0.9993218779563904,
		-1.0,
		-0.9998282790184021],
		"max":[0.9993218779563904,
		1.0,
		0.9998282790184021]
	},
	{
		"bufferView":11,
		"componentType":5126,
		"type":"VEC2",
		"byteOffset":24,
		"count":1368,
		"min":[0.0,
		0.0],
		"max":[1.0,
		1.0]
	},
	{
		"bufferView":12,
		"componentType":5123,
		"type":"SCALAR",
		"byteOffset":0,
		"count":8538,
		"min":[0],
		"max":[1850]
	},
	{
		"bufferView":13,
		"componentType":5126,
		"type":"VEC3",
		"byteOffset":0,
		"count":1851,
		"min":[-90.26343536376953,
		-238.17774963378907,
		-227.5146026611328],
		"max":[173.6840057373047,
		154.91810607910157,
		36.432838439941409]
	},
	{
		"bufferView":13,
		"componentType":5126,
		"type":"VEC3",
		"byteOffset":12,
		"count":1851,
		"min":[-0.999992311000824,
		-0.9996881484985352,
		-0.9993006587028503],
		"max":[0.9993007183074951,
		0.9996881484985352,
		0.9998071789741516]
	},
	{
		"bufferView":13,
		"componentType":5126,
		"type":"VEC2",
		"byteOffset":24,
		"count":1851,
		"min":[0.0,
		0.0],
		"max":[1.8181817531585694,
		1.0]
	},
	{
		"bufferView":14,
		"componentType":5123,
		"type":"SCALAR",
		"byteOffset":0,
		"count":189,
		"min":[0],
		"max":[70]
	},
	{
		"bufferView":15,
		"componentType":5126,
		"type":"VEC3",
		"byteOffset":0,
		"count":71,
		"min":[-100.0,
		-47.4346923828125,
		1.0279902200750063e-13],
		"max":[100.0,
		47.4346923828125,
		99.45218658447266]
	},
	{
		"bufferView":15,
		"componentType":5126,
		"type":"VEC3",
		"byteOffset":12,
		"count":71,
		"min":[-0.9945219159126282,
		-1.0,
		-1.0],
		"max":[0.9945219159126282,
		1.0,
		0.9975719451904297]
	},
	{
		"bufferView":15,
		"componentType":5126,
		"type":"VEC2",
		"byteOffset":24,
		"count":71,
		"min":[0.0,
		0.0],
		"max":[1.8181817531585694,
		1.0]
	}],
	"bufferViews":[{
		"buffer":0,
		"byteOffset":0,
		"byteLength":19344,
		"target":34963
	},
	{
		"buffer":0,
		"byteOffset":19344,
		"byteLength":99872,
		"target":34962,
		"byteStride":32
	},
	{
		"buffer":1,
		"byteOffset":0,
		"byteLength":378,
		"target":34963
	},
	{
		"buffer":1,
		"byteOffset":380,
		"byteLength":2272,
		"target":34962,
		"byteStride":32
	},
	{
		"buffer":2,
		"byteOffset":0,
		"byteLength":102,
		"target":34963
	},
	{
		"buffer":2,
		"byteOffset":104,
		"byteLength":736,
		"target":34962,
		"byteStride":32
	},
	{
		"buffer":3,
		"byteOffset":0,
		"byteLength":552,
		"target":34963
	},
	{
		"buffer":3,
		"byteOffset":552,
		"byteLength":4608,
		"target":34962,
		"byteStride":32
	},
	{
		"buffer":4,
		"byteOffset":0,
		"byteLength":1308,
		"target":34963
	},
	{
		"buffer":4,
		"byteOffset":1308,
		"byteLength":5232,
		"target":34962,
		"byteStride":24
	},
	{
		"buffer":5,
		"byteOffset":0,
		"byteLength":5640,
		"target":34963
	},
	{
		"buffer":5,
		"byteOffset":5640,
		"byteLength":43776,
		"target":34962,
		"byteStride":32
	},
	{
		"buffer":6,
		"byteOffset":0,
		"byteLength":17076,
		"target":34963
	},
	{
		"buffer":6,
		"byteOffset":17076,
		"byteLength":59232,
		"target":34962,
		"byteStride":32
	},
	{
		"buffer":7,
		"byteOffset":0,
		"byteLength":378,
		"target":34963
	},
	{
		"buffer":7,
		"byteOffset":380,
		"byteLength":2272,
		"target":34962,
		"byteStride":32
	}],
	"buffers":[{
		"uri":"data:application/octet-stream;base64,",
		"byteLength":119216
	},
	{
		"uri":"data:application/octet-stream;base64,",
		"byteLength":2652
	},
	{
		"uri":"data:application/octet-stream;base64,",
		"byteLength":840
	},
	{
		"uri":"data:application/octet-stream;base64,",
		"byteLength":5160
	},
	{
		"uri":"data:application/octet-stream;base64,",
		"byteLength":6540
	},
	{
		"uri":"data:application/octet-stream;base64,",
		"byteLength":49416
	},
	{
		"uri":"data:application/octet-stream;base64,",
		"byteLength":76308
	},
	{
		"uri":"data:application/octet-stream;base64,",
		"byteLength":2652
	}],
	"materials":[{
		"pbrMetallicRoughness":{
			"baseColorFactor":[0.8,
			0.8,
			0.8,
			1.0],
			"metallicFactor":1.0,
			"roughnessFactor":1.0
		},
		"doubleSided":false,
		"emissiveFactor":[0.0,
		0.0,
		0.0],
		"alphaMode":"OPAQUE",
		"name":"Terra Cotta"
	}]
}