{
	"asset":{
		"version":"2.0",
		"generator":"Created using the official Cinema 4D glTF Exporter 1.000x284978"
	},
	"scenes":[{
		"nodes":[0,
		1,
		2,
		4,
		6,
		8,
		10]
	}],
	"nodes":[{
		"rotation":[0.0,
		-0.3826834261417389,
		0.0,
		-0.9238795042037964],
		"name":"Cylinder_1_2_2_1",
		"translation":[408.6868591308594,
		-324.71099853515627,
		-284.423828125],
		"scale":[1.0,
		1.0,
		1.0],
		"mesh":0
	},
	{
		"rotation":[0.0,
		-0.3826834261417389,
		0.0,
		-0.9238795042037964],
		"name":"Cylinder_BLUE",
		"translation":[226.5480194091797,
		-146.53627014160157,
		-11.942028045654297],
		"scale":[1.0,
		1.0,
		1.0],
		"mesh":1
	},
	{
		"rotation":[0.0,
		-0.3826834261417389,
		0.0,
		-0.9238795042037964],
		"name":"Cube_90",
		"translation":[543.9240112304688,
		-177.39784240722657,
		-219.1739501953125],
		"scale":[1.0,
		1.0,
		1.0],
		"children":[3]
	},
	{
		"rotation":[0.0,
		0.0,
		0.0,
		-1.0],
		"name":"Cube_4_2_1_BLUE_1",
		"translation":[-171.06980895996095,
		5.978046894073486,
		-421.607421875],
		"scale":[1.0,
		1.0,
		1.0],
		"mesh":2
	},
	{
		"rotation":[0.0,
		-0.3826834261417389,
		0.0,
		-0.9238795042037964],
		"name":"Cube_91",
		"translation":[479.3720703125,
		-109.69672393798828,
		-571.6806640625],
		"scale":[1.0,
		1.0,
		1.0],
		"children":[5]
	},
	{
		"name":"Cube_BLUE",
		"mesh":3
	},
	{
		"rotation":[0.0,
		-0.3826834261417389,
		0.0,
		-0.9238795042037964],
		"name":"Cylinder_1_32",
		"translation":[-800.2684326171875,
		-307.56060791015627,
		-120.28231811523438],
		"scale":[1.0,
		1.0,
		1.0],
		"children":[7]
	},
	{
		"name":"Cylinder_1_2_2_1_BLUE",
		"mesh":4
	},
	{
		"rotation":[0.0,
		-0.3826834261417389,
		0.0,
		-0.9238795042037964],
		"name":"Cylinder_1_45",
		"translation":[-175.99176025390626,
		-334.95782470703127,
		260.0693054199219],
		"scale":[1.0,
		1.0,
		1.0],
		"children":[9]
	},
	{
		"name":"Cylinder_1_2_BLUE",
		"mesh":5
	},
	{
		"rotation":[0.0,
		0.0,
		0.0,
		-1.0],
		"name":"Floor_cieling_Cloner",
		"translation":[-1587.427978515625,
		-206.70367431640626,
		-1665.643310546875],
		"scale":[1.0,
		1.0,
		1.0],
		"mesh":6
	}],
	"meshes":[{
		"name":"Cylinder_1_2_2_1",
		"primitives":[{
			"attributes":{
				"POSITION":1,
				"NORMAL":2,
				"TEXCOORD_0":3
			},
			"indices":0
		}]
	},
	{
		"name":"Cylinder_BLUE",
		"primitives":[{
			"attributes":{
				"POSITION":5,
				"NORMAL":6,
				"TEXCOORD_0":7
			},
			"indices":4
		}]
	},
	{
		"name":"Cube_4_2_1_BLUE_1",
		"primitives":[{
			"attributes":{
				"POSITION":9,
				"NORMAL":10,
				"TEXCOORD_0":11
			},
			"indices":8
		}]
	},
	{
		"name":"Cube_BLUE",
		"primitives":[{
			"attributes":{
				"POSITION":13,
				"NORMAL":14,
				"TEXCOORD_0":15
			},
			"indices":12
		}]
	},
	{
		"name":"Cylinder_1_2_2_1_BLUE",
		"primitives":[{
			"attributes":{
				"POSITION":17,
				"NORMAL":18,
				"TEXCOORD_0":19
			},
			"indices":16
		}]
	},
	{
		"name":"Cylinder_1_2_BLUE",
		"primitives":[{
			"attributes":{
				"POSITION":21,
				"NORMAL":22,
				"TEXCOORD_0":23
			},
			"indices":20
		}]
	},
	{
		"name":"Floor_cieling_Cloner",
		"primitives":[{
			"attributes":{
				"POSITION":25,
				"NORMAL":26,
				"TEXCOORD_0":27
			},
			"indices":24
		}]
	}],
	"accessors":[{
		"bufferView":0,
		"type":"SCALAR",
		"componentType":5123,
		"count":948,
		"byteOffset":0,
		"min":[0],
		"max":[167]
	},
	{
		"bufferView":1,
		"type":"VEC3",
		"componentType":5126,
		"count":168,
		"byteOffset":0,
		"min":[-186.0,
		-77.8693618774414,
		-186.0],
		"max":[186.0,
		77.8693618774414,
		186.0]
	},
	{
		"bufferView":1,
		"type":"VEC3",
		"componentType":5126,
		"count":168,
		"byteOffset":12,
		"min":[-0.9794041514396668,
		-0.9974847435951233,
		-0.9794041514396668],
		"max":[0.9794041514396668,
		0.9987695813179016,
		0.9794041514396668]
	},
	{
		"bufferView":1,
		"type":"VEC2",
		"componentType":5126,
		"count":168,
		"byteOffset":24,
		"min":[0.0,
		0.29548656940460207],
		"max":[1.0,
		0.704513430595398]
	},
	{
		"bufferView":2,
		"type":"SCALAR",
		"componentType":5123,
		"count":534,
		"byteOffset":0,
		"min":[0],
		"max":[104]
	},
	{
		"bufferView":3,
		"type":"VEC3",
		"componentType":5126,
		"count":105,
		"byteOffset":0,
		"min":[-186.0,
		-125.0,
		-186.0],
		"max":[186.0,
		-50.38813781738281,
		186.0]
	},
	{
		"bufferView":3,
		"type":"VEC3",
		"componentType":5126,
		"count":105,
		"byteOffset":12,
		"min":[-0.9986092448234558,
		-0.9974675178527832,
		-0.9986092448234558],
		"max":[0.9986092448234558,
		0.0,
		0.9986092448234558]
	},
	{
		"bufferView":3,
		"type":"VEC2",
		"componentType":5126,
		"count":105,
		"byteOffset":24,
		"min":[0.0,
		0.5813606977462769],
		"max":[1.0,
		0.704513430595398]
	},
	{
		"bufferView":4,
		"type":"SCALAR",
		"componentType":5123,
		"count":354,
		"byteOffset":0,
		"min":[0],
		"max":[102]
	},
	{
		"bufferView":5,
		"type":"VEC3",
		"componentType":5126,
		"count":103,
		"byteOffset":0,
		"min":[-100.0,
		-250.0,
		-150.0],
		"max":[100.0,
		-27.895843505859376,
		150.0]
	},
	{
		"bufferView":5,
		"type":"VEC3",
		"componentType":5126,
		"count":103,
		"byteOffset":12,
		"min":[-0.9962141513824463,
		-0.9865121841430664,
		-0.9962142109870911],
		"max":[0.9962141513824463,
		0.0,
		0.9962142109870911]
	},
	{
		"bufferView":5,
		"type":"VEC2",
		"componentType":5126,
		"count":103,
		"byteOffset":24,
		"min":[0.0,
		0.0],
		"max":[1.0,
		1.0]
	},
	{
		"bufferView":6,
		"type":"SCALAR",
		"componentType":5123,
		"count":354,
		"byteOffset":0,
		"min":[0],
		"max":[102]
	},
	{
		"bufferView":7,
		"type":"VEC3",
		"componentType":5126,
		"count":103,
		"byteOffset":0,
		"min":[-100.0,
		-250.0,
		-150.0],
		"max":[100.0,
		-109.1490249633789,
		150.0]
	},
	{
		"bufferView":7,
		"type":"VEC3",
		"componentType":5126,
		"count":103,
		"byteOffset":12,
		"min":[-0.9962141513824463,
		-0.9865121841430664,
		-0.9962142109870911],
		"max":[0.9962141513824463,
		0.0,
		0.9962142109870911]
	},
	{
		"bufferView":7,
		"type":"VEC2",
		"componentType":5126,
		"count":103,
		"byteOffset":24,
		"min":[0.0,
		0.0],
		"max":[1.0,
		1.0]
	},
	{
		"bufferView":8,
		"type":"SCALAR",
		"componentType":5123,
		"count":534,
		"byteOffset":0,
		"min":[0],
		"max":[104]
	},
	{
		"bufferView":9,
		"type":"VEC3",
		"componentType":5126,
		"count":105,
		"byteOffset":0,
		"min":[-186.0,
		-125.0,
		-186.0],
		"max":[186.0,
		-79.07492065429688,
		186.0]
	},
	{
		"bufferView":9,
		"type":"VEC3",
		"componentType":5126,
		"count":105,
		"byteOffset":12,
		"min":[-0.9986092448234558,
		-0.9974675178527832,
		-0.9986092448234558],
		"max":[0.9986092448234558,
		0.0,
		0.9986092448234558]
	},
	{
		"bufferView":9,
		"type":"VEC2",
		"componentType":5126,
		"count":105,
		"byteOffset":24,
		"min":[0.0,
		0.6276806592941284],
		"max":[1.0,
		0.704513430595398]
	},
	{
		"bufferView":10,
		"type":"SCALAR",
		"componentType":5123,
		"count":414,
		"byteOffset":0,
		"min":[0],
		"max":[103]
	},
	{
		"bufferView":11,
		"type":"VEC3",
		"componentType":5126,
		"count":104,
		"byteOffset":0,
		"min":[-186.0,
		-125.0,
		-186.0],
		"max":[186.0,
		72.50157928466797,
		186.0]
	},
	{
		"bufferView":11,
		"type":"VEC3",
		"componentType":5126,
		"count":104,
		"byteOffset":12,
		"min":[-0.9986092448234558,
		-1.0,
		-0.9986092448234558],
		"max":[0.9986092448234558,
		0.0,
		0.9986092448234558]
	},
	{
		"bufferView":11,
		"type":"VEC2",
		"componentType":5126,
		"count":104,
		"byteOffset":24,
		"min":[0.0,
		0.38293302059173586],
		"max":[1.0,
		0.704513430595398]
	},
	{
		"bufferView":12,
		"type":"SCALAR",
		"componentType":5123,
		"count":61209,
		"byteOffset":0,
		"min":[0],
		"max":[14391]
	},
	{
		"bufferView":13,
		"type":"VEC3",
		"componentType":5126,
		"count":14392,
		"byteOffset":0,
		"min":[-2617.491943359375,
		-426.2764587402344,
		-2585.191650390625],
		"max":[2640.82666015625,
		397.1907653808594,
		2523.0458984375]
	},
	{
		"bufferView":13,
		"type":"VEC3",
		"componentType":5126,
		"count":14392,
		"byteOffset":12,
		"min":[-1.0,
		-1.0,
		-1.0],
		"max":[1.0,
		1.0,
		1.0]
	},
	{
		"bufferView":13,
		"type":"VEC2",
		"componentType":5126,
		"count":14392,
		"byteOffset":24,
		"min":[0.0,
		0.0],
		"max":[1.0,
		1.0]
	}],
	"bufferViews":[{
		"buffer":0,
		"byteOffset":0,
		"byteLength":1896,
		"target":34963
	},
	{
		"buffer":0,
		"byteOffset":1896,
		"byteLength":5376,
		"target":34962,
		"byteStride":32
	},
	{
		"buffer":1,
		"byteOffset":0,
		"byteLength":1068,
		"target":34963
	},
	{
		"buffer":1,
		"byteOffset":1068,
		"byteLength":3360,
		"target":34962,
		"byteStride":32
	},
	{
		"buffer":2,
		"byteOffset":0,
		"byteLength":708,
		"target":34963
	},
	{
		"buffer":2,
		"byteOffset":708,
		"byteLength":3296,
		"target":34962,
		"byteStride":32
	},
	{
		"buffer":3,
		"byteOffset":0,
		"byteLength":708,
		"target":34963
	},
	{
		"buffer":3,
		"byteOffset":708,
		"byteLength":3296,
		"target":34962,
		"byteStride":32
	},
	{
		"buffer":4,
		"byteOffset":0,
		"byteLength":1068,
		"target":34963
	},
	{
		"buffer":4,
		"byteOffset":1068,
		"byteLength":3360,
		"target":34962,
		"byteStride":32
	},
	{
		"buffer":5,
		"byteOffset":0,
		"byteLength":828,
		"target":34963
	},
	{
		"buffer":5,
		"byteOffset":828,
		"byteLength":3328,
		"target":34962,
		"byteStride":32
	},
	{
		"buffer":6,
		"byteOffset":0,
		"byteLength":122418,
		"target":34963
	},
	{
		"buffer":6,
		"byteOffset":122420,
		"byteLength":460544,
		"target":34962,
		"byteStride":32
	}],
	"buffers":[{
		"uri":"data:application/octet-stream;base64,",
		"byteLength":7272
	},
	{
		"uri":"data:application/octet-stream;base64,",
		"byteLength":4428
	},
	{
		"uri":"data:application/octet-stream;base64,",
		"byteLength":4004
	},
	{
		"uri":"data:application/octet-stream;base64,",
		"byteLength":4004
	},
	{
		"uri":"data:application/octet-stream;base64,",
		"byteLength":4428
	},
	{
		"uri":"data:application/octet-stream;base64,",
		"byteLength":4156
	},
	{
		"uri":"data:application/octet-stream;base64,",
		"byteLength":582964
	}]
}